<svg width="161" height="64" viewBox="0 0 161 64" fill="none" xmlns="http://www.w3.org/2000/svg">
<rect width="50" height="5" rx="2.5" fill="#231E1C"/>
<rect x="111" width="50" height="5" rx="2.5" fill="#231E1C"/>
<mask id="path-3-inside-1_178_198" fill="white">
<path d="M126.28 10.0008C127.442 9.18764 129.059 9.46396 129.717 10.7197C131.449 14.0267 132.229 17.7694 131.942 21.5257C131.589 26.1393 129.647 30.4878 126.447 33.8303C123.248 37.1727 118.988 39.3023 114.394 39.8562C109.8 40.4101 105.156 39.354 101.254 36.8678C97.3515 34.3817 94.4319 30.6193 92.9924 26.2218C91.5529 21.8243 91.6828 17.0637 93.3598 12.7512C95.0369 8.43874 98.1573 4.84115 102.19 2.57144C105.472 0.723526 109.194 -0.151089 112.923 0.0212913C114.34 0.0867515 115.273 1.43561 115.027 2.8317V2.8317C114.781 4.2278 113.445 5.13635 112.028 5.13371C109.478 5.12897 106.955 5.78036 104.708 7.0451C101.711 8.73221 99.3911 11.4064 98.1445 14.6119C96.8979 17.8174 96.8014 21.356 97.8714 24.6248C98.9413 27.8935 101.112 30.6901 104.012 32.5381C106.913 34.3861 110.365 35.1711 113.78 34.7594C117.194 34.3477 120.36 32.7647 122.739 30.2802C125.117 27.7957 126.561 24.5634 126.823 21.1341C127.02 18.5632 126.544 16.0009 125.462 13.6921C124.86 12.4084 125.119 10.8139 126.28 10.0008V10.0008Z"/>
</mask>
<path d="M126.28 10.0008C127.442 9.18764 129.059 9.46396 129.717 10.7197C131.449 14.0267 132.229 17.7694 131.942 21.5257C131.589 26.1393 129.647 30.4878 126.447 33.8303C123.248 37.1727 118.988 39.3023 114.394 39.8562C109.8 40.4101 105.156 39.354 101.254 36.8678C97.3515 34.3817 94.4319 30.6193 92.9924 26.2218C91.5529 21.8243 91.6828 17.0637 93.3598 12.7512C95.0369 8.43874 98.1573 4.84115 102.19 2.57144C105.472 0.723526 109.194 -0.151089 112.923 0.0212913C114.34 0.0867515 115.273 1.43561 115.027 2.8317V2.8317C114.781 4.2278 113.445 5.13635 112.028 5.13371C109.478 5.12897 106.955 5.78036 104.708 7.0451C101.711 8.73221 99.3911 11.4064 98.1445 14.6119C96.8979 17.8174 96.8014 21.356 97.8714 24.6248C98.9413 27.8935 101.112 30.6901 104.012 32.5381C106.913 34.3861 110.365 35.1711 113.78 34.7594C117.194 34.3477 120.36 32.7647 122.739 30.2802C125.117 27.7957 126.561 24.5634 126.823 21.1341C127.02 18.5632 126.544 16.0009 125.462 13.6921C124.86 12.4084 125.119 10.8139 126.28 10.0008V10.0008Z" stroke="#231E1C" stroke-width="10" mask="url(#path-3-inside-1_178_198)"/>
<mask id="path-4-inside-2_178_198" fill="white">
<path d="M45.3762 2.64265C45.2442 1.23117 46.2844 -0.0374354 47.7012 0.0122578C51.432 0.143118 55.0706 1.31693 58.1927 3.4252C62.0273 6.01468 64.8455 9.85367 66.167 14.2881C67.4885 18.7224 67.2315 23.4779 65.4399 27.744C63.6483 32.0102 60.4329 35.5232 56.3415 37.6844C52.2501 39.8456 47.5359 40.5213 43.0022 39.5964C38.4685 38.6715 34.3957 36.2032 31.4779 32.612C28.56 29.0209 26.9776 24.5291 27.0002 19.9021C27.0187 16.1349 28.1001 12.4678 30.0951 9.3124C30.8526 8.11415 32.4869 7.97 33.5783 8.87469V8.87469C34.6697 9.77939 34.7984 11.3896 34.0947 12.6203C32.829 14.8336 32.1465 17.3489 32.1339 19.9272C32.1171 23.3666 33.2933 26.7054 35.4622 29.3747C37.6311 32.044 40.6584 33.8788 44.0284 34.5663C47.3984 35.2538 50.9025 34.7515 53.9437 33.145C56.9848 31.5386 59.3749 28.9274 60.7066 25.7562C62.0384 22.5851 62.2294 19.0504 61.2471 15.7542C60.2648 12.4581 58.17 9.60451 55.3197 7.67971C53.1829 6.23677 50.7206 5.38272 48.1789 5.18051C46.7658 5.06807 45.5082 4.05412 45.3762 2.64265V2.64265Z"/>
</mask>
<path d="M45.3762 2.64265C45.2442 1.23117 46.2844 -0.0374354 47.7012 0.0122578C51.432 0.143118 55.0706 1.31693 58.1927 3.4252C62.0273 6.01468 64.8455 9.85367 66.167 14.2881C67.4885 18.7224 67.2315 23.4779 65.4399 27.744C63.6483 32.0102 60.4329 35.5232 56.3415 37.6844C52.2501 39.8456 47.5359 40.5213 43.0022 39.5964C38.4685 38.6715 34.3957 36.2032 31.4779 32.612C28.56 29.0209 26.9776 24.5291 27.0002 19.9021C27.0187 16.1349 28.1001 12.4678 30.0951 9.3124C30.8526 8.11415 32.4869 7.97 33.5783 8.87469V8.87469C34.6697 9.77939 34.7984 11.3896 34.0947 12.6203C32.829 14.8336 32.1465 17.3489 32.1339 19.9272C32.1171 23.3666 33.2933 26.7054 35.4622 29.3747C37.6311 32.044 40.6584 33.8788 44.0284 34.5663C47.3984 35.2538 50.9025 34.7515 53.9437 33.145C56.9848 31.5386 59.3749 28.9274 60.7066 25.7562C62.0384 22.5851 62.2294 19.0504 61.2471 15.7542C60.2648 12.4581 58.17 9.60451 55.3197 7.67971C53.1829 6.23677 50.7206 5.38272 48.1789 5.18051C46.7658 5.06807 45.5082 4.05412 45.3762 2.64265V2.64265Z" stroke="#231E1C" stroke-width="10" mask="url(#path-4-inside-2_178_198)"/>
<rect x="76.396" y="42.8677" width="5" height="25" rx="2.5" transform="rotate(-35 76.396 42.8677)" fill="black"/>
<rect x="79.3394" y="40" width="5" height="25" rx="2.5" transform="rotate(35 79.3394 40)" fill="black"/>
</svg>
