<svg width="151" height="151" viewBox="0 0 151 151" fill="none" xmlns="http://www.w3.org/2000/svg">
<rect x="70" width="10" height="150" rx="5" fill="#FFFAFA"/>
<rect y="80" width="10" height="150" rx="5" transform="rotate(-90 0 80)" fill="#FFFAFA"/>
<rect x="143.213" y="51.7158" width="10" height="30" rx="5" transform="rotate(45 143.213 51.7158)" fill="#FFFAFA"/>
<rect x="150.285" y="90.9287" width="10" height="30" rx="5" transform="rotate(135 150.285 90.9287)" fill="#FFFAFA"/>
<rect x="127" y="100" width="10" height="50" rx="5" transform="rotate(-180 127 100)" fill="#FFFAFA"/>
<rect x="98.2842" y="143.213" width="10" height="30" rx="5" transform="rotate(135 98.2842 143.213)" fill="#FFFAFA"/>
<rect x="59.0713" y="150.285" width="10" height="30" rx="5" transform="rotate(-135 59.0713 150.285)" fill="#FFFAFA"/>
<rect x="50" y="127" width="10" height="50" rx="5" transform="rotate(-90 50 127)" fill="#FFFAFA"/>
<rect x="51.7158" y="7.07129" width="10" height="30" rx="5" transform="rotate(-45 51.7158 7.07129)" fill="#FFFAFA"/>
<rect x="90.9287" width="10" height="30" rx="5" transform="rotate(45 90.9287 0)" fill="#FFFAFA"/>
<rect x="100" y="23.2847" width="10" height="50" rx="5" transform="rotate(90 100 23.2847)" fill="#FFFAFA"/>
<rect x="7.07129" y="98.2842" width="10" height="30" rx="5" transform="rotate(-135 7.07129 98.2842)" fill="#FFFAFA"/>
<rect y="59.0713" width="10" height="30" rx="5" transform="rotate(-45 0 59.0713)" fill="#FFFAFA"/>
<rect x="23.2847" y="50" width="10" height="50" rx="5" fill="#FFFAFA"/>
<rect x="37" y="78.0713" width="10" height="50" transform="rotate(-45 37 78.0713)" fill="#FFFAFA"/>
<rect x="70.3555" y="38" width="10" height="50" transform="rotate(45 70.3555 38)" fill="#FFFAFA"/>
<rect x="72" y="45.0713" width="10" height="50" transform="rotate(-45 72 45.0713)" fill="#FFFAFA"/>
<rect x="105.355" y="72" width="10" height="50" transform="rotate(45 105.355 72)" fill="#FFFAFA"/>
</svg>
