<svg width="198" height="289" viewBox="0 0 198 289" fill="none" xmlns="http://www.w3.org/2000/svg">
<path d="M83.3039 169.368C83.5761 168.551 84.3404 168 85.2013 168H111.867C113.43 168 114.389 169.713 113.572 171.046L95.228 200.954C94.4107 202.287 95.3696 204 96.9329 204H122.139C123.761 204 124.708 205.829 123.773 207.154L77.4633 272.728C76.072 274.698 73.028 272.977 73.9988 270.769L94.5266 224.085C95.1078 222.763 94.1397 221.28 92.6958 221.28H68.7748C67.4097 221.28 66.4458 219.943 66.8775 218.648L83.3039 169.368Z" fill="url(#paint0_linear_162_170)"/>
<g filter="url(#filter0_d_162_170)">
<path d="M173.193 74.5653C177.646 115.747 147.871 152.74 106.69 157.193C69.5776 161.206 35.8662 137.421 26.3078 102.541C25.1305 98.2445 30.1361 95.4044 33.8571 97.8533C106.171 145.446 156.596 61.6928 103.385 16.8921C99.6653 13.7607 101.281 7.50675 106.119 7.9874C140.687 11.4215 169.311 38.6571 173.193 74.5653Z" fill="url(#paint1_linear_162_170)"/>
</g>
<g filter="url(#filter1_i_162_170)">
<ellipse cx="66.4209" cy="149.105" rx="39.4737" ry="39.4737" fill="#7B8AAE"/>
</g>
<g filter="url(#filter2_i_162_170)">
<circle cx="101.947" cy="139.895" r="32.8947" fill="#7B8AAE"/>
</g>
<g filter="url(#filter3_i_162_170)">
<path d="M198 149.105C198 170.906 180.327 188.579 158.526 188.579C136.726 188.579 119.053 170.906 119.053 149.105C119.053 127.304 136.726 109.631 158.526 109.631C180.327 109.631 198 127.304 198 149.105Z" fill="#7B8AAE"/>
</g>
<g filter="url(#filter4_i_162_170)">
<circle cx="26.3158" cy="162.316" r="26.3158" fill="#7B8AAE"/>
</g>
<rect x="26.9473" y="155.684" width="131.579" height="32.8947" fill="#7B8AAE"/>
<rect x="21.1763" y="193" width="3.86021" height="20" rx="1.9301" transform="rotate(15 21.1763 193)" fill="#C6F0F6"/>
<rect x="50.1763" y="208" width="3.86021" height="20" rx="1.9301" transform="rotate(15 50.1763 208)" fill="#C6F0F6"/>
<rect x="136.896" y="193" width="3.86021" height="20" rx="1.9301" transform="rotate(15 136.896 193)" fill="#C6F0F6"/>
<rect x="166" y="208" width="3.86021" height="20" rx="1.9301" transform="rotate(15 166 208)" fill="#C6F0F6"/>
<defs>
<filter id="filter0_d_162_170" x="22.1328" y="7.96143" width="155.501" height="157.672" filterUnits="userSpaceOnUse" color-interpolation-filters="sRGB">
<feFlood flood-opacity="0" result="BackgroundImageFix"/>
<feColorMatrix in="SourceAlpha" type="matrix" values="0 0 0 0 0 0 0 0 0 0 0 0 0 0 0 0 0 0 127 0" result="hardAlpha"/>
<feOffset dy="4"/>
<feGaussianBlur stdDeviation="2"/>
<feComposite in2="hardAlpha" operator="out"/>
<feColorMatrix type="matrix" values="0 0 0 0 0 0 0 0 0 0 0 0 0 0 0 0 0 0 0.25 0"/>
<feBlend mode="normal" in2="BackgroundImageFix" result="effect1_dropShadow_162_170"/>
<feBlend mode="normal" in="SourceGraphic" in2="effect1_dropShadow_162_170" result="shape"/>
</filter>
<filter id="filter1_i_162_170" x="26.9473" y="109.631" width="78.9473" height="82.9473" filterUnits="userSpaceOnUse" color-interpolation-filters="sRGB">
<feFlood flood-opacity="0" result="BackgroundImageFix"/>
<feBlend mode="normal" in="SourceGraphic" in2="BackgroundImageFix" result="shape"/>
<feColorMatrix in="SourceAlpha" type="matrix" values="0 0 0 0 0 0 0 0 0 0 0 0 0 0 0 0 0 0 127 0" result="hardAlpha"/>
<feOffset dy="4"/>
<feGaussianBlur stdDeviation="2"/>
<feComposite in2="hardAlpha" operator="arithmetic" k2="-1" k3="1"/>
<feColorMatrix type="matrix" values="0 0 0 0 0 0 0 0 0 0 0 0 0 0 0 0 0 0 0.25 0"/>
<feBlend mode="normal" in2="shape" result="effect1_innerShadow_162_170"/>
</filter>
<filter id="filter2_i_162_170" x="67.0527" y="107" width="67.7896" height="67.7896" filterUnits="userSpaceOnUse" color-interpolation-filters="sRGB">
<feFlood flood-opacity="0" result="BackgroundImageFix"/>
<feBlend mode="normal" in="SourceGraphic" in2="BackgroundImageFix" result="shape"/>
<feColorMatrix in="SourceAlpha" type="matrix" values="0 0 0 0 0 0 0 0 0 0 0 0 0 0 0 0 0 0 127 0" result="hardAlpha"/>
<feOffset dx="-2" dy="2"/>
<feGaussianBlur stdDeviation="1"/>
<feComposite in2="hardAlpha" operator="arithmetic" k2="-1" k3="1"/>
<feColorMatrix type="matrix" values="0 0 0 0 0 0 0 0 0 0 0 0 0 0 0 0 0 0 0.25 0"/>
<feBlend mode="normal" in2="shape" result="effect1_innerShadow_162_170"/>
</filter>
<filter id="filter3_i_162_170" x="115.053" y="109.631" width="82.9473" height="82.9473" filterUnits="userSpaceOnUse" color-interpolation-filters="sRGB">
<feFlood flood-opacity="0" result="BackgroundImageFix"/>
<feBlend mode="normal" in="SourceGraphic" in2="BackgroundImageFix" result="shape"/>
<feColorMatrix in="SourceAlpha" type="matrix" values="0 0 0 0 0 0 0 0 0 0 0 0 0 0 0 0 0 0 127 0" result="hardAlpha"/>
<feOffset dx="-4" dy="4"/>
<feGaussianBlur stdDeviation="2"/>
<feComposite in2="hardAlpha" operator="arithmetic" k2="-1" k3="1"/>
<feColorMatrix type="matrix" values="0 0 0 0 0 0 0 0 0 0 0 0 0 0 0 0 0 0 0.25 0"/>
<feBlend mode="normal" in2="shape" result="effect1_innerShadow_162_170"/>
</filter>
<filter id="filter4_i_162_170" x="0" y="136" width="54.6313" height="53.4313" filterUnits="userSpaceOnUse" color-interpolation-filters="sRGB">
<feFlood flood-opacity="0" result="BackgroundImageFix"/>
<feBlend mode="normal" in="SourceGraphic" in2="BackgroundImageFix" result="shape"/>
<feColorMatrix in="SourceAlpha" type="matrix" values="0 0 0 0 0 0 0 0 0 0 0 0 0 0 0 0 0 0 127 0" result="hardAlpha"/>
<feOffset dx="2" dy="0.8"/>
<feGaussianBlur stdDeviation="1"/>
<feComposite in2="hardAlpha" operator="arithmetic" k2="-1" k3="1"/>
<feColorMatrix type="matrix" values="0 0 0 0 0 0 0 0 0 0 0 0 0 0 0 0 0 0 0.25 0"/>
<feBlend mode="normal" in2="shape" result="effect1_innerShadow_162_170"/>
</filter>
<linearGradient id="paint0_linear_162_170" x1="96" y1="193.5" x2="96" y2="273.5" gradientUnits="userSpaceOnUse">
<stop stop-color="#FFC700"/>
<stop offset="1" stop-color="#FAFF00"/>
</linearGradient>
<linearGradient id="paint1_linear_162_170" x1="35.2528" y1="20.2037" x2="151.128" y2="137.954" gradientUnits="userSpaceOnUse">
<stop offset="0.02" stop-color="#FEFCE7"/>
<stop offset="1" stop-color="#FEEC4C"/>
</linearGradient>
</defs>
</svg>
