<svg width="120" height="125" viewBox="0 0 120 125" fill="none" xmlns="http://www.w3.org/2000/svg">
<path d="M32.0196 61.7203C32.0196 61.7203 37.6785 53.8725 46.8421 58.4223C51.7122 60.8403 54.7329 65.8218 60.1689 65.9026C65.8553 65.9871 68.3135 58.8377 73.9864 58.4223C79.8357 57.9939 85.7974 59.1027 87.3665 63.2874C91.8055 75.1258 85.777 94.2292 85.777 94.2292L81.0697 99.4118L75.3164 103.652L68.5169 106.699L60.0778 108.599L51.3223 107.421L44.0554 103.652L38.6052 99.4118L34.0634 94.2292L30.657 85.9842L29.0674 77.2681L29.5216 69.4942L32.0196 61.7203Z" fill="#6ECAE3"/>
<path d="M28.7966 75.8181C28.7819 71.6462 30.7094 64.9662 33.9043 56.9575C37.0513 49.0689 41.27 40.2644 45.5148 32.0042C49.7554 23.7521 54.0011 16.0836 57.1882 10.4756C58.4149 8.31714 59.484 6.46535 60.3346 5.00467C61.129 6.46428 62.1234 8.30714 63.2628 10.4511C66.2561 16.0833 70.245 23.7846 74.2333 32.0699C78.2253 40.3627 82.1983 49.2026 85.1717 57.1206C88.1867 65.1492 90.0326 71.8745 90.0475 76.0885C90.1095 93.6269 76.4594 107.787 59.5524 107.722C42.6314 107.658 28.8587 93.371 28.7966 75.8181Z" stroke="black" stroke-width="5"/>
<path d="M57.0796 77.4551C57.0796 78.9121 55.8984 80.0933 54.4414 80.0933C52.9844 80.0933 51.8032 78.9121 51.8032 77.4551C51.8032 75.9981 52.9844 74.8169 54.4414 74.8169C55.8984 74.8169 57.0796 75.9981 57.0796 77.4551Z" stroke="black"/>
<path d="M66.4019 86.7769C66.4019 88.2339 65.2207 89.4151 63.7637 89.4151C62.3066 89.4151 61.1255 88.2339 61.1255 86.7769C61.1255 85.3198 62.3066 84.1387 63.7637 84.1387C65.2207 84.1387 66.4019 85.3198 66.4019 86.7769Z" stroke="black"/>
<rect x="61.3828" y="74.2705" width="1.5691" height="15.6909" rx="0.5" transform="rotate(22.2489 61.3828 74.2705)" fill="black"/>
</svg>
