<svg width="15" height="19" viewBox="0 0 15 19" fill="none" xmlns="http://www.w3.org/2000/svg">
<path d="M11.04 5.77001C11.04 8.68055 8.68055 11.04 5.77001 11.04C2.85946 11.04 0.5 8.68055 0.5 5.77001C0.5 2.85946 2.85946 0.5 5.77001 0.5C8.68055 0.5 11.04 2.85946 11.04 5.77001Z" stroke="black"/>
<rect x="8.05566" y="10.3623" width="1.53867" height="9.90917" rx="0.769334" transform="rotate(-35 8.05566 10.3623)" fill="black"/>
<path d="M6.22533 2.1145C6.29961 2.01918 6.42331 1.97693 6.54039 2.0069L6.88008 2.09384C6.93127 2.10694 6.98111 2.12485 7.02893 2.14732L7.24931 2.25088C7.41724 2.32979 7.57846 2.42227 7.73136 2.52739L7.92376 2.65968L8.05253 2.77244C8.239 2.93572 8.41233 3.11342 8.57093 3.30389V3.30389L8.68714 3.47821C8.86587 3.74631 9.02481 4.02708 9.1627 4.31831V4.31831L9.28046 4.68215C9.3172 4.79567 9.28722 4.9202 9.20286 5.00457V5.00457C9.06225 5.14517 8.8285 5.12349 8.71616 4.95942L8.63708 4.84393L8.40752 4.43074V4.43074C8.21543 4.12868 8.00185 3.84084 7.76842 3.56946L7.70543 3.49622V3.49622C7.46877 3.28624 7.21316 3.09866 6.94186 2.93588L6.86885 2.89207L6.45784 2.6647L6.29334 2.55205C6.14878 2.45307 6.11764 2.25269 6.22533 2.1145V2.1145Z" fill="black"/>
<circle cx="9.34661" cy="5.63079" r="0.2885" fill="black"/>
</svg>
