<svg width="316" height="203" viewBox="0 0 316 203" fill="none" xmlns="http://www.w3.org/2000/svg">
<path d="M95.4765 36.4447C66.4771 -1.55566 139.977 -7.55555 170.976 7.94448C193.414 19.1633 209.977 52.4443 177.977 75.9443C145.977 99.4443 127.975 117.445 28.4762 81.4447C-71.0229 45.4443 124.476 74.4452 95.4765 36.4447Z" fill="#6ECAE3"/>
<path d="M53.0978 134.794C62.5534 129.756 70.2378 128.932 81.2203 128.932C92.2028 128.932 98.3603 128.932 109.343 128.932C120.325 128.932 126.483 128.932 137.465 128.932C148.448 128.932 154.605 128.932 165.588 128.932C176.57 128.932 182.686 128.932 193.71 128.932C203.477 128.932 206.588 128.932 217.477 128.932C228.977 128.932 233.433 128.909 244.081 130.444C248.977 131.15 253.58 133.244 257.977 136.944C262.977 141.151 265.395 147.444 264.977 151.444C264.611 154.944 262.607 162.944 261.477 165.008C259.868 167.944 259.366 171.307 254.477 176.732C250.992 180.6 248.58 183.484 244.081 188.444C240.857 191.999 237.158 195.012 232.582 197.025C225.639 200.078 218.305 202.609 210.584 202.436C203.469 202.277 184.477 199.075 176.977 193.459C166.83 185.861 159.977 176.732 159.977 176.732C159.977 176.732 154.44 167.817 144.09 165.008C129.935 161.166 121.765 159.413 107.093 157.793C95.6442 156.528 89.1289 156.583 77.5956 156.44C73.3007 156.386 70.877 156.116 66.5966 156.44C62.8541 156.722 60.0971 156.891 57.0974 156.891C52.4034 156.891 46.7851 157.745 43.5987 154.636C40.3496 151.466 41.2237 148.464 43.5986 144.715C45.5985 141.559 43.4713 144.641 45.5985 141.559C47.6467 138.591 49.7611 136.572 53.0978 134.794Z" fill="#C7E9F3"/>
<path d="M34.6164 94.0546C40.4863 91.9052 41.9514 91.3734 48.4911 90.2932C57.0256 88.8836 60.1204 88.1439 68.769 88.1439C77.4175 88.1439 82.2664 88.1439 90.9149 88.1439C99.5635 88.1439 104.412 88.1439 113.061 88.1439C121.709 88.1439 126.558 88.1439 135.207 88.1439C143.855 88.1439 148.704 88.1439 157.353 88.1439C166.001 88.1439 169.627 88.1439 178.698 88.1439C187.77 88.1439 192.039 88.1439 201.645 88.1439C211.25 88.1439 233.755 79.9443 253.977 62.4442C264.377 53.4443 272.977 44.0822 293.43 44.082C312.676 44.0819 312.477 53.4443 312.477 53.4443C312.477 53.4443 317.978 62.3513 313.709 77.3971C309.44 92.4428 304.103 99.965 293.43 110.175C282.758 120.384 252.672 123.041 225.658 125.758C212.895 127.041 205.656 126.576 192.84 127.101C180.023 127.626 159.977 125.758 159.977 125.758C159.977 125.758 141.977 122.444 126.977 120.444C111.977 118.444 111.977 118.444 98.9771 114.444C85.9771 110.444 78.7104 111.179 65.4771 110.444C52.2437 109.71 34.6164 110.444 34.6164 110.444C34.6164 110.444 24.4775 109.953 24.4771 104.533C24.4767 99.428 29.8865 95.7865 34.6164 94.0546Z" fill="#A4D8E9"/>
<rect x="55.4771" y="67.4443" width="35" height="5" rx="2.5" fill="#231E1C"/>
<rect x="93.4771" y="67.4443" width="63" height="5" rx="2.5" fill="#231E1C"/>
<mask id="path-6-inside-1_146_230" fill="white">
<path d="M124.514 42.5464C123.113 42.5464 121.966 41.4087 122.084 40.0128C122.511 34.9728 124.208 30.1077 127.033 25.8793C130.329 20.9458 135.015 17.1006 140.497 14.83C145.978 12.5594 152.01 11.9653 157.83 13.1228C163.649 14.2804 168.995 17.1376 173.19 21.3332C177.386 25.5288 180.243 30.8743 181.401 36.6937C182.558 42.5131 181.964 48.5451 179.693 54.0269C177.423 59.5087 173.578 64.194 168.644 67.4905C164.416 70.3158 159.551 72.0121 154.511 72.4392C153.115 72.5575 151.977 71.4108 151.977 70.0099V70.0099C151.977 68.609 153.116 67.4868 154.509 67.3445C158.544 66.9324 162.432 65.5401 165.826 63.2724C169.925 60.5334 173.12 56.6404 175.007 52.0855C176.893 47.5307 177.387 42.5187 176.425 37.6834C175.463 32.848 173.089 28.4064 169.603 24.9203C166.117 21.4342 161.675 19.0602 156.84 18.0984C152.005 17.1365 146.993 17.6302 142.438 19.5168C137.883 21.4035 133.99 24.5985 131.251 28.6977C128.983 32.0915 127.591 35.979 127.179 40.0142C127.037 41.4078 125.914 42.5464 124.514 42.5464V42.5464Z"/>
</mask>
<path d="M124.514 42.5464C123.113 42.5464 121.966 41.4087 122.084 40.0128C122.511 34.9728 124.208 30.1077 127.033 25.8793C130.329 20.9458 135.015 17.1006 140.497 14.83C145.978 12.5594 152.01 11.9653 157.83 13.1228C163.649 14.2804 168.995 17.1376 173.19 21.3332C177.386 25.5288 180.243 30.8743 181.401 36.6937C182.558 42.5131 181.964 48.5451 179.693 54.0269C177.423 59.5087 173.578 64.194 168.644 67.4905C164.416 70.3158 159.551 72.0121 154.511 72.4392C153.115 72.5575 151.977 71.4108 151.977 70.0099V70.0099C151.977 68.609 153.116 67.4868 154.509 67.3445C158.544 66.9324 162.432 65.5401 165.826 63.2724C169.925 60.5334 173.12 56.6404 175.007 52.0855C176.893 47.5307 177.387 42.5187 176.425 37.6834C175.463 32.848 173.089 28.4064 169.603 24.9203C166.117 21.4342 161.675 19.0602 156.84 18.0984C152.005 17.1365 146.993 17.6302 142.438 19.5168C137.883 21.4035 133.99 24.5985 131.251 28.6977C128.983 32.0915 127.591 35.979 127.179 40.0142C127.037 41.4078 125.914 42.5464 124.514 42.5464V42.5464Z" stroke="#231E1C" stroke-width="10" mask="url(#path-6-inside-1_146_230)"/>
<mask id="path-7-inside-2_146_230" fill="white">
<path d="M214.477 136.881C214.477 135.48 215.615 134.333 217.011 134.451C222.051 134.879 226.916 136.575 231.144 139.4C236.078 142.697 239.923 147.382 242.193 152.864C244.464 158.346 245.058 164.378 243.901 170.197C242.743 176.016 239.886 181.362 235.69 185.557C231.495 189.753 226.149 192.61 220.33 193.768C214.51 194.925 208.478 194.331 202.996 192.061C197.515 189.79 192.829 185.945 189.533 181.011C186.708 176.783 185.011 171.918 184.584 166.878C184.466 165.482 185.613 164.344 187.014 164.344V164.344C188.414 164.344 189.537 165.483 189.679 166.876C190.091 170.912 191.483 174.799 193.751 178.193C196.49 182.292 200.383 185.487 204.938 187.374C209.493 189.26 214.505 189.754 219.34 188.792C224.175 187.83 228.617 185.456 232.103 181.97C235.589 178.484 237.963 174.043 238.925 169.207C239.887 164.372 239.393 159.36 237.507 154.805C235.62 150.25 232.425 146.357 228.326 143.618C224.932 141.351 221.044 139.958 217.009 139.546C215.616 139.404 214.477 138.282 214.477 136.881V136.881Z"/>
</mask>
<path d="M214.477 136.881C214.477 135.48 215.615 134.333 217.011 134.451C222.051 134.879 226.916 136.575 231.144 139.4C236.078 142.697 239.923 147.382 242.193 152.864C244.464 158.346 245.058 164.378 243.901 170.197C242.743 176.016 239.886 181.362 235.69 185.557C231.495 189.753 226.149 192.61 220.33 193.768C214.51 194.925 208.478 194.331 202.996 192.061C197.515 189.79 192.829 185.945 189.533 181.011C186.708 176.783 185.011 171.918 184.584 166.878C184.466 165.482 185.613 164.344 187.014 164.344V164.344C188.414 164.344 189.537 165.483 189.679 166.876C190.091 170.912 191.483 174.799 193.751 178.193C196.49 182.292 200.383 185.487 204.938 187.374C209.493 189.26 214.505 189.754 219.34 188.792C224.175 187.83 228.617 185.456 232.103 181.97C235.589 178.484 237.963 174.043 238.925 169.207C239.887 164.372 239.393 159.36 237.507 154.805C235.62 150.25 232.425 146.357 228.326 143.618C224.932 141.351 221.044 139.958 217.009 139.546C215.616 139.404 214.477 138.282 214.477 136.881V136.881Z" stroke="#231E1C" stroke-width="10" mask="url(#path-7-inside-2_146_230)"/>
<rect x="64.4771" y="134.444" width="75" height="5" rx="2.5" fill="#231E1C"/>
<rect x="144.477" y="134.444" width="75" height="5" rx="2.5" fill="#231E1C"/>
<rect x="36.4771" y="103.444" width="215" height="5" rx="2.5" fill="#231E1C"/>
<mask id="path-11-inside-3_146_230" fill="white">
<path d="M208.955 68.5244C207.586 68.5244 206.469 67.4139 206.554 66.048C206.99 59.0074 209.283 52.1913 213.218 46.3016C217.614 39.7236 223.861 34.5967 231.17 31.5692C238.479 28.5417 246.521 27.7496 254.281 29.293C262.04 30.8364 269.167 34.646 274.761 40.2401C280.355 45.8343 284.165 52.9616 285.708 60.7208C287.252 68.4801 286.46 76.5227 283.432 83.8318C280.405 91.1408 275.278 97.388 268.7 101.783C262.81 105.719 255.994 108.011 248.953 108.448C247.588 108.532 246.477 107.415 246.477 106.047V106.047C246.477 104.678 247.588 103.578 248.953 103.481C255.013 103.052 260.872 101.053 265.947 97.6626C271.71 93.8119 276.201 88.3388 278.854 81.9353C281.506 75.5318 282.2 68.4855 280.848 61.6876C279.496 54.8897 276.158 48.6454 271.257 43.7444C266.356 38.8434 260.112 35.5057 253.314 34.1535C246.516 32.8013 239.47 33.4953 233.066 36.1477C226.663 38.8002 221.19 43.2919 217.339 49.0549C213.948 54.1294 211.949 59.9889 211.52 66.0485C211.424 67.4136 210.323 68.5244 208.955 68.5244V68.5244Z"/>
</mask>
<path d="M208.955 68.5244C207.586 68.5244 206.469 67.4139 206.554 66.048C206.99 59.0074 209.283 52.1913 213.218 46.3016C217.614 39.7236 223.861 34.5967 231.17 31.5692C238.479 28.5417 246.521 27.7496 254.281 29.293C262.04 30.8364 269.167 34.646 274.761 40.2401C280.355 45.8343 284.165 52.9616 285.708 60.7208C287.252 68.4801 286.46 76.5227 283.432 83.8318C280.405 91.1408 275.278 97.388 268.7 101.783C262.81 105.719 255.994 108.011 248.953 108.448C247.588 108.532 246.477 107.415 246.477 106.047V106.047C246.477 104.678 247.588 103.578 248.953 103.481C255.013 103.052 260.872 101.053 265.947 97.6626C271.71 93.8119 276.201 88.3388 278.854 81.9353C281.506 75.5318 282.2 68.4855 280.848 61.6876C279.496 54.8897 276.158 48.6454 271.257 43.7444C266.356 38.8434 260.112 35.5057 253.314 34.1535C246.516 32.8013 239.47 33.4953 233.066 36.1477C226.663 38.8002 221.19 43.2919 217.339 49.0549C213.948 54.1294 211.949 59.9889 211.52 66.0485C211.424 67.4136 210.323 68.5244 208.955 68.5244V68.5244Z" stroke="#231E1C" stroke-width="10" mask="url(#path-11-inside-3_146_230)"/>
</svg>
